<svg xmlns="http://www.w3.org/2000/svg" width="1920" height="1080"><path d="M56,-338L379,-347L612,-360Z" fill="#252525" stroke="#252525" stroke-width="1.51"/><path d="M612,-360L982,-257L1357,-242Z" fill="#424242" stroke="#424242" stroke-width="1.51"/><path d="M892,1404L497,1455L1946,1432Z" fill="#bebebe" stroke="#bebebe" stroke-width="1.51"/><path d="M1470,1316L1080,1369L1946,1432Z" fill="#cdcdcd" stroke="#cdcdcd" stroke-width="1.51"/><path d="M1080,1369L892,1404L1946,1432Z" fill="#c5c5c5" stroke="#c5c5c5" stroke-width="1.51"/><path d="M1357,-242L1529,-216L1985,-336Z" fill="#5f5f5f" stroke="#5f5f5f" stroke-width="1.51"/><path d="M612,-360L1357,-242L1985,-336Z" fill="#4e4e4e" stroke="#4e4e4e" stroke-width="1.51"/><path d="M2039,353L2242,533L2265,180Z" fill="#a3a3a3" stroke="#a3a3a3" stroke-width="1.51"/><path d="M2249,757L2060,1001L2323,795Z" fill="#c9c9c9" stroke="#c9c9c9" stroke-width="1.51"/><path d="M2265,180L2242,533L2323,795Z" fill="#b3b3b3" stroke="#b3b3b3" stroke-width="1.51"/><path d="M2242,533L2249,757L2323,795Z" fill="#c1c1c1" stroke="#c1c1c1" stroke-width="1.51"/><path d="M1985,-336L2143,-219L2330,-110Z" fill="#797979" stroke="#797979" stroke-width="1.51"/><path d="M2030,-48L2265,180L2330,-110Z" fill="#8c8c8c" stroke="#8c8c8c" stroke-width="1.51"/><path d="M2265,180L2323,795L2330,-110Z" fill="#a4a4a4" stroke="#a4a4a4" stroke-width="1.51"/><path d="M2323,795L2060,1001L2336,1092Z" fill="#d4d4d4" stroke="#d4d4d4" stroke-width="1.51"/><path d="M2060,1001L2239,1306L2336,1092Z" fill="#dfdfdf" stroke="#dfdfdf" stroke-width="1.51"/><path d="M2330,-110L2323,795L2336,1092Z" fill="#bcbcbc" stroke="#bcbcbc" stroke-width="1.51"/><path d="M2021,914L2060,1001L2249,757Z" fill="#c8c8c8" stroke="#c8c8c8" stroke-width="1.51"/><path d="M2143,-219L2030,-48L2330,-110Z" fill="#808080" stroke="#808080" stroke-width="1.51"/><path d="M2242,533L1961,642L2249,757Z" fill="#b7b7b7" stroke="#b7b7b7" stroke-width="1.51"/><path d="M1981,261L2039,353L2265,180Z" fill="#999999" stroke="#999999" stroke-width="1.51"/><path d="M2030,-48L1981,261L2265,180Z" fill="#8f8f8f" stroke="#8f8f8f" stroke-width="1.51"/><path d="M2060,1001L1946,1432L2239,1306Z" fill="#e1e1e1" stroke="#e1e1e1" stroke-width="1.51"/><path d="M1961,642L2021,914L2249,757Z" fill="#bdbdbd" stroke="#bdbdbd" stroke-width="1.51"/><path d="M2039,353L1961,642L2242,533Z" fill="#aaaaaa" stroke="#aaaaaa" stroke-width="1.51"/><path d="M1755,1173L1946,1432L2060,1001Z" fill="#d5d5d5" stroke="#d5d5d5" stroke-width="1.51"/><path d="M1985,-336L2030,-48L2143,-219Z" fill="#767676" stroke="#767676" stroke-width="1.51"/><path d="M1761,297L1689,381L1961,642Z" fill="#979797" stroke="#979797" stroke-width="1.51"/><path d="M1961,642L1821,890L2021,914Z" fill="#b9b9b9" stroke="#b9b9b9" stroke-width="1.51"/><path d="M1757,-49L1981,261L2030,-48Z" fill="#828282" stroke="#828282" stroke-width="1.51"/><path d="M1985,-336L1738,-180L2030,-48Z" fill="#707070" stroke="#707070" stroke-width="1.51"/><path d="M1761,297L1961,642L2039,353Z" fill="#9c9c9c" stroke="#9c9c9c" stroke-width="1.51"/><path d="M2021,914L1821,890L2060,1001Z" fill="#c3c3c3" stroke="#c3c3c3" stroke-width="1.51"/><path d="M1821,890L1755,1173L2060,1001Z" fill="#c5c5c5" stroke="#c5c5c5" stroke-width="1.51"/><path d="M1529,-216L1738,-180L1985,-336Z" fill="#666666" stroke="#666666" stroke-width="1.51"/><path d="M1738,-180L1757,-49L2030,-48Z" fill="#747474" stroke="#747474" stroke-width="1.51"/><path d="M1981,261L1761,297L2039,353Z" fill="#939393" stroke="#939393" stroke-width="1.51"/><path d="M1755,1173L1713,1257L1946,1432Z" fill="#d6d6d6" stroke="#d6d6d6" stroke-width="1.51"/><path d="M1757,-49L1761,297L1981,261Z" fill="#858585" stroke="#858585" stroke-width="1.51"/><path d="M1757,-49L1636,112L1761,297Z" fill="#7d7d7d" stroke="#7d7d7d" stroke-width="1.51"/><path d="M1689,381L1699,690L1961,642Z" fill="#a0a0a0" stroke="#a0a0a0" stroke-width="1.51"/><path d="M1699,690L1821,890L1961,642Z" fill="#aeaeae" stroke="#aeaeae" stroke-width="1.51"/><path d="M1713,1257L1470,1316L1946,1432Z" fill="#d5d5d5" stroke="#d5d5d5" stroke-width="1.51"/><path d="M1643,800L1594,1218L1755,1173Z" fill="#bebebe" stroke="#bebebe" stroke-width="1.51"/><path d="M1643,800L1755,1173L1821,890Z" fill="#b9b9b9" stroke="#b9b9b9" stroke-width="1.51"/><path d="M1699,690L1643,800L1821,890Z" fill="#adadad" stroke="#adadad" stroke-width="1.51"/><path d="M1689,381L1520,462L1699,690Z" fill="#949494" stroke="#949494" stroke-width="1.51"/><path d="M1594,1218L1470,1316L1713,1257Z" fill="#c9c9c9" stroke="#c9c9c9" stroke-width="1.51"/><path d="M1738,-180L1555,-142L1757,-49Z" fill="#6a6a6a" stroke="#6a6a6a" stroke-width="1.51"/><path d="M1636,112L1689,381L1761,297Z" fill="#868686" stroke="#868686" stroke-width="1.51"/><path d="M1555,-142L1636,112L1757,-49Z" fill="#707070" stroke="#707070" stroke-width="1.51"/><path d="M1594,1218L1713,1257L1755,1173Z" fill="#cacaca" stroke="#cacaca" stroke-width="1.51"/><path d="M1444,762L1594,1218L1643,800Z" fill="#afafaf" stroke="#afafaf" stroke-width="1.51"/><path d="M1529,-216L1555,-142L1738,-180Z" fill="#636363" stroke="#636363" stroke-width="1.51"/><path d="M1444,762L1354,798L1594,1218Z" fill="#aaaaaa" stroke="#aaaaaa" stroke-width="1.51"/><path d="M1636,112L1520,462L1689,381Z" fill="#868686" stroke="#868686" stroke-width="1.51"/><path d="M1444,762L1643,800L1699,690Z" fill="#a3a3a3" stroke="#a3a3a3" stroke-width="1.51"/><path d="M1520,462L1444,762L1699,690Z" fill="#999999" stroke="#999999" stroke-width="1.51"/><path d="M1280,1211L1333,1246L1354,798Z" fill="#afafaf" stroke="#afafaf" stroke-width="1.51"/><path d="M1354,798L1333,1246L1594,1218Z" fill="#b4b4b4" stroke="#b4b4b4" stroke-width="1.51"/><path d="M1360,439L1520,462L1636,112Z" fill="#828282" stroke="#828282" stroke-width="1.51"/><path d="M1254,210L1360,439L1636,112Z" fill="#787878" stroke="#787878" stroke-width="1.51"/><path d="M1555,-142L1254,210L1636,112Z" fill="#6e6e6e" stroke="#6e6e6e" stroke-width="1.51"/><path d="M1196,-94L1254,210L1555,-142Z" fill="#636363" stroke="#636363" stroke-width="1.51"/><path d="M1333,1246L1470,1316L1594,1218Z" fill="#c3c3c3" stroke="#c3c3c3" stroke-width="1.51"/><path d="M1360,439L1444,762L1520,462Z" fill="#8e8e8e" stroke="#8e8e8e" stroke-width="1.51"/><path d="M1529,-216L1357,-242L1555,-142Z" fill="#5d5d5d" stroke="#5d5d5d" stroke-width="1.51"/><path d="M1357,-242L1196,-94L1555,-142Z" fill="#5a5a5a" stroke="#5a5a5a" stroke-width="1.51"/><path d="M1360,439L1216,548L1444,762Z" fill="#8b8b8b" stroke="#8b8b8b" stroke-width="1.51"/><path d="M1333,1246L1080,1369L1470,1316Z" fill="#bebebe" stroke="#bebebe" stroke-width="1.51"/><path d="M1120,923L1280,1211L1354,798Z" fill="#a3a3a3" stroke="#a3a3a3" stroke-width="1.51"/><path d="M1216,548L1354,798L1444,762Z" fill="#949494" stroke="#949494" stroke-width="1.51"/><path d="M1120,923L1092,1000L1280,1211Z" fill="#a4a4a4" stroke="#a4a4a4" stroke-width="1.51"/><path d="M1280,1211L1080,1369L1333,1246Z" fill="#b8b8b8" stroke="#b8b8b8" stroke-width="1.51"/><path d="M1216,548L1090,693L1354,798Z" fill="#8c8c8c" stroke="#8c8c8c" stroke-width="1.51"/><path d="M982,-257L1196,-94L1357,-242Z" fill="#4f4f4f" stroke="#4f4f4f" stroke-width="1.51"/><path d="M1254,210L1216,548L1360,439Z" fill="#7c7c7c" stroke="#7c7c7c" stroke-width="1.51"/><path d="M1006,440L1216,548L1254,210Z" fill="#767676" stroke="#767676" stroke-width="1.51"/><path d="M1090,693L1120,923L1354,798Z" fill="#949494" stroke="#949494" stroke-width="1.51"/><path d="M1066,225L1006,440L1254,210Z" fill="#6d6d6d" stroke="#6d6d6d" stroke-width="1.51"/><path d="M1016,-61L1066,225L1196,-94Z" fill="#5a5a5a" stroke="#5a5a5a" stroke-width="1.51"/><path d="M1196,-94L1066,225L1254,210Z" fill="#646464" stroke="#646464" stroke-width="1.51"/><path d="M1092,1000L1080,1369L1280,1211Z" fill="#afafaf" stroke="#afafaf" stroke-width="1.51"/><path d="M982,-257L1016,-61L1196,-94Z" fill="#4f4f4f" stroke="#4f4f4f" stroke-width="1.51"/><path d="M1006,440L1090,693L1216,548Z" fill="#7f7f7f" stroke="#7f7f7f" stroke-width="1.51"/><path d="M798,1169L1080,1369L1092,1000Z" fill="#a6a6a6" stroke="#a6a6a6" stroke-width="1.51"/><path d="M612,-360L769,-237L982,-257Z" fill="#3a3a3a" stroke="#3a3a3a" stroke-width="1.51"/><path d="M798,1169L892,1404L1080,1369Z" fill="#acacac" stroke="#acacac" stroke-width="1.51"/><path d="M1006,440L862,630L1090,693Z" fill="#7b7b7b" stroke="#7b7b7b" stroke-width="1.51"/><path d="M805,844L1092,1000L1120,923Z" fill="#949494" stroke="#949494" stroke-width="1.51"/><path d="M1090,693L805,844L1120,923Z" fill="#8c8c8c" stroke="#8c8c8c" stroke-width="1.51"/><path d="M1016,-61L792,211L1066,225Z" fill="#5b5b5b" stroke="#5b5b5b" stroke-width="1.51"/><path d="M862,630L805,844L1090,693Z" fill="#818181" stroke="#818181" stroke-width="1.51"/><path d="M805,844L798,1169L1092,1000Z" fill="#949494" stroke="#949494" stroke-width="1.51"/><path d="M827,417L1006,440L1066,225Z" fill="#6b6b6b" stroke="#6b6b6b" stroke-width="1.51"/><path d="M792,211L827,417L1066,225Z" fill="#636363" stroke="#636363" stroke-width="1.51"/><path d="M827,417L862,630L1006,440Z" fill="#717171" stroke="#717171" stroke-width="1.51"/><path d="M982,-257L784,-138L1016,-61Z" fill="#484848" stroke="#484848" stroke-width="1.51"/><path d="M784,-138L792,211L1016,-61Z" fill="#4f4f4f" stroke="#4f4f4f" stroke-width="1.51"/><path d="M769,-237L784,-138L982,-257Z" fill="#414141" stroke="#414141" stroke-width="1.51"/><path d="M784,-138L596,-119L792,211Z" fill="#484848" stroke="#484848" stroke-width="1.51"/><path d="M573,992L798,1169L805,844Z" fill="#8c8c8c" stroke="#8c8c8c" stroke-width="1.51"/><path d="M792,211L725,236L827,417Z" fill="#5e5e5e" stroke="#5e5e5e" stroke-width="1.51"/><path d="M827,417L720,413L862,630Z" fill="#6c6c6c" stroke="#6c6c6c" stroke-width="1.51"/><path d="M798,1169L521,1303L892,1404Z" fill="#a2a2a2" stroke="#a2a2a2" stroke-width="1.51"/><path d="M521,1303L497,1455L892,1404Z" fill="#a4a4a4" stroke="#a4a4a4" stroke-width="1.51"/><path d="M596,-119L725,236L792,211Z" fill="#4f4f4f" stroke="#4f4f4f" stroke-width="1.51"/><path d="M594,1177L521,1303L798,1169Z" fill="#979797" stroke="#979797" stroke-width="1.51"/><path d="M725,236L720,413L827,417Z" fill="#616161" stroke="#616161" stroke-width="1.51"/><path d="M592,663L805,844L862,630Z" fill="#797979" stroke="#797979" stroke-width="1.51"/><path d="M720,413L592,663L862,630Z" fill="#6e6e6e" stroke="#6e6e6e" stroke-width="1.51"/><path d="M596,-119L478,137L725,236Z" fill="#494949" stroke="#494949" stroke-width="1.51"/><path d="M573,992L594,1177L798,1169Z" fill="#919191" stroke="#919191" stroke-width="1.51"/><path d="M592,663L573,992L805,844Z" fill="#7d7d7d" stroke="#7d7d7d" stroke-width="1.51"/><path d="M769,-237L596,-119L784,-138Z" fill="#3f3f3f" stroke="#3f3f3f" stroke-width="1.51"/><path d="M612,-360L596,-119L769,-237Z" fill="#383838" stroke="#383838" stroke-width="1.51"/><path d="M458,360L592,663L720,413Z" fill="#626262" stroke="#626262" stroke-width="1.51"/><path d="M458,360L720,413L725,236Z" fill="#5b5b5b" stroke="#5b5b5b" stroke-width="1.51"/><path d="M478,137L458,360L725,236Z" fill="#515151" stroke="#515151" stroke-width="1.51"/><path d="M386,794L573,992L592,663Z" fill="#767676" stroke="#767676" stroke-width="1.51"/><path d="M418,669L386,794L592,663Z" fill="#6c6c6c" stroke="#6c6c6c" stroke-width="1.51"/><path d="M458,360L418,669L592,663Z" fill="#636363" stroke="#636363" stroke-width="1.51"/><path d="M573,992L404,1190L594,1177Z" fill="#8b8b8b" stroke="#8b8b8b" stroke-width="1.51"/><path d="M351,-53L478,137L596,-119Z" fill="#3e3e3e" stroke="#3e3e3e" stroke-width="1.51"/><path d="M379,-347L351,-53L596,-119Z" fill="#333333" stroke="#333333" stroke-width="1.51"/><path d="M379,-347L596,-119L612,-360Z" fill="#313131" stroke="#313131" stroke-width="1.51"/><path d="M404,1190L521,1303L594,1177Z" fill="#919191" stroke="#919191" stroke-width="1.51"/><path d="M164,1266L-199,1385L497,1455Z" fill="#8b8b8b" stroke="#8b8b8b" stroke-width="1.51"/><path d="M231,1117L404,1190L573,992Z" fill="#848484" stroke="#848484" stroke-width="1.51"/><path d="M386,794L231,1117L573,992Z" fill="#7b7b7b" stroke="#7b7b7b" stroke-width="1.51"/><path d="M202,484L418,669L458,360Z" fill="#5a5a5a" stroke="#5a5a5a" stroke-width="1.51"/><path d="M404,1190L497,1455L521,1303Z" fill="#979797" stroke="#979797" stroke-width="1.51"/><path d="M240,295L458,360L478,137Z" fill="#4b4b4b" stroke="#4b4b4b" stroke-width="1.51"/><path d="M404,1190L164,1266L497,1455Z" fill="#909090" stroke="#909090" stroke-width="1.51"/><path d="M351,-53L148,21L478,137Z" fill="#3b3b3b" stroke="#3b3b3b" stroke-width="1.51"/><path d="M148,21L240,295L478,137Z" fill="#404040" stroke="#404040" stroke-width="1.51"/><path d="M182,805L231,1117L386,794Z" fill="#707070" stroke="#707070" stroke-width="1.51"/><path d="M240,295L202,484L458,360Z" fill="#4f4f4f" stroke="#4f4f4f" stroke-width="1.51"/><path d="M56,-338L351,-53L379,-347Z" fill="#282828" stroke="#282828" stroke-width="1.51"/><path d="M239,753L386,794L418,669Z" fill="#696969" stroke="#696969" stroke-width="1.51"/><path d="M202,484L239,753L418,669Z" fill="#5f5f5f" stroke="#5f5f5f" stroke-width="1.51"/><path d="M239,753L182,805L386,794Z" fill="#686868" stroke="#686868" stroke-width="1.51"/><path d="M231,1117L164,1266L404,1190Z" fill="#848484" stroke="#848484" stroke-width="1.51"/><path d="M-6,-164L148,21L351,-53Z" fill="#2e2e2e" stroke="#2e2e2e" stroke-width="1.51"/><path d="M56,-338L-6,-164L351,-53Z" fill="#262626" stroke="#262626" stroke-width="1.51"/><path d="M-176,178L-88,386L148,21Z" fill="#363636" stroke="#363636" stroke-width="1.51"/><path d="M-54,1236L-199,1385L164,1266Z" fill="#7d7d7d" stroke="#7d7d7d" stroke-width="1.51"/><path d="M-120,581L182,805L202,484Z" fill="#565656" stroke="#565656" stroke-width="1.51"/><path d="M182,805L-79,1020L231,1117Z" fill="#6f6f6f" stroke="#6f6f6f" stroke-width="1.51"/><path d="M202,484L182,805L239,753Z" fill="#5e5e5e" stroke="#5e5e5e" stroke-width="1.51"/><path d="M-88,386L202,484L240,295Z" fill="#484848" stroke="#484848" stroke-width="1.51"/><path d="M148,21L-88,386L240,295Z" fill="#3e3e3e" stroke="#3e3e3e" stroke-width="1.51"/><path d="M-54,1236L164,1266L231,1117Z" fill="#7e7e7e" stroke="#7e7e7e" stroke-width="1.51"/><path d="M-79,1020L-54,1236L231,1117Z" fill="#757575" stroke="#757575" stroke-width="1.51"/><path d="M-88,386L-120,581L202,484Z" fill="#494949" stroke="#494949" stroke-width="1.51"/><path d="M-173,830L-79,1020L182,805Z" fill="#626262" stroke="#626262" stroke-width="1.51"/><path d="M-120,581L-173,830L182,805Z" fill="#585858" stroke="#585858" stroke-width="1.51"/><path d="M-6,-164L-176,178L148,21Z" fill="#2c2c2c" stroke="#2c2c2c" stroke-width="1.51"/><path d="M-171,-128L-176,178L-6,-164Z" fill="#252525" stroke="#252525" stroke-width="1.51"/><path d="M-171,-128L-6,-164L56,-338Z" fill="#1e1e1e" stroke="#1e1e1e" stroke-width="1.51"/><path d="M-406,-153L-171,-128L56,-338Z" fill="#191919" stroke="#191919" stroke-width="1.51"/><path d="M-298,129L-176,178L-171,-128Z" fill="#272727" stroke="#272727" stroke-width="1.51"/><path d="M-235,429L-120,581L-88,386Z" fill="#424242" stroke="#424242" stroke-width="1.51"/><path d="M-79,1020L-244,1049L-54,1236Z" fill="#6c6c6c" stroke="#6c6c6c" stroke-width="1.51"/><path d="M-244,1049L-199,1385L-54,1236Z" fill="#727272" stroke="#727272" stroke-width="1.51"/><path d="M-176,178L-235,429L-88,386Z" fill="#393939" stroke="#393939" stroke-width="1.51"/><path d="M-173,830L-244,1049L-79,1020Z" fill="#616161" stroke="#616161" stroke-width="1.51"/><path d="M-401,556L-419,789L-173,830Z" fill="#4b4b4b" stroke="#4b4b4b" stroke-width="1.51"/><path d="M-401,556L-173,830L-120,581Z" fill="#4a4a4a" stroke="#4a4a4a" stroke-width="1.51"/><path d="M-235,429L-401,556L-120,581Z" fill="#414141" stroke="#414141" stroke-width="1.51"/><path d="M-298,129L-235,429L-176,178Z" fill="#313131" stroke="#313131" stroke-width="1.51"/><path d="M-419,789L-244,1049L-173,830Z" fill="#575757" stroke="#575757" stroke-width="1.51"/><path d="M-408,53L-298,129L-171,-128Z" fill="#222222" stroke="#222222" stroke-width="1.51"/><path d="M-406,-153L-408,53L-171,-128Z" fill="#1b1b1b" stroke="#1b1b1b" stroke-width="1.51"/><path d="M-244,1049L-419,789L-199,1385Z" fill="#636363" stroke="#636363" stroke-width="1.51"/><path d="M-408,53L-401,556L-298,129Z" fill="#2c2c2c" stroke="#2c2c2c" stroke-width="1.51"/><path d="M-298,129L-401,556L-235,429Z" fill="#353535" stroke="#353535" stroke-width="1.51"/><path d="M-408,53L-419,789L-401,556Z" fill="#373737" stroke="#373737" stroke-width="1.51"/></svg>