<svg xmlns="http://www.w3.org/2000/svg" width="1920" height="1080"><path d="M953,-484L1672,-375L2006,-365Z" fill="#585858" stroke="#585858" stroke-width="1.51"/><path d="M1457,1451L212,1532L2127,1536Z" fill="#bcbcbc" stroke="#bcbcbc" stroke-width="1.51"/><path d="M953,-484L2006,-365L2328,-376Z" fill="#606060" stroke="#606060" stroke-width="1.51"/><path d="M2369,-47L2091,325L2429,391Z" fill="#989898" stroke="#989898" stroke-width="1.51"/><path d="M2357,744L2014,1160L2459,1140Z" fill="#c8c8c8" stroke="#c8c8c8" stroke-width="1.51"/><path d="M2014,1160L2127,1536L2459,1140Z" fill="#d5d5d5" stroke="#d5d5d5" stroke-width="1.51"/><path d="M2429,391L2357,744L2459,1140Z" fill="#bdbdbd" stroke="#bdbdbd" stroke-width="1.51"/><path d="M2459,1140L2127,1536L2494,1510Z" fill="#e3e3e3" stroke="#e3e3e3" stroke-width="1.51"/><path d="M2429,391L2459,1140L2494,1510Z" fill="#d0d0d0" stroke="#d0d0d0" stroke-width="1.51"/><path d="M2022,675L2357,744L2429,391Z" fill="#aeaeae" stroke="#aeaeae" stroke-width="1.51"/><path d="M2091,325L2022,675L2429,391Z" fill="#a2a2a2" stroke="#a2a2a2" stroke-width="1.51"/><path d="M961,1355L212,1532L1457,1451Z" fill="#a9a9a9" stroke="#a9a9a9" stroke-width="1.51"/><path d="M2048,-24L2091,325L2369,-47Z" fill="#8b8b8b" stroke="#8b8b8b" stroke-width="1.51"/><path d="M2006,-365L2048,-24L2328,-376Z" fill="#767676" stroke="#767676" stroke-width="1.51"/><path d="M2022,675L2014,1160L2357,744Z" fill="#b8b8b8" stroke="#b8b8b8" stroke-width="1.51"/><path d="M2328,-376L2048,-24L2369,-47Z" fill="#818181" stroke="#818181" stroke-width="1.51"/><path d="M1608,1129L2014,1160L2022,675Z" fill="#b6b6b6" stroke="#b6b6b6" stroke-width="1.51"/><path d="M1675,430L2022,675L2091,325Z" fill="#999999" stroke="#999999" stroke-width="1.51"/><path d="M2048,-24L1650,114L2091,325Z" fill="#858585" stroke="#858585" stroke-width="1.51"/><path d="M2014,1160L1626,1341L2127,1536Z" fill="#cdcdcd" stroke="#cdcdcd" stroke-width="1.51"/><path d="M1626,1341L1457,1451L2127,1536Z" fill="#cccccc" stroke="#cccccc" stroke-width="1.51"/><path d="M1587,674L1608,1129L2022,675Z" fill="#a6a6a6" stroke="#a6a6a6" stroke-width="1.51"/><path d="M2006,-365L1672,-375L2048,-24Z" fill="#6e6e6e" stroke="#6e6e6e" stroke-width="1.51"/><path d="M1650,114L1675,430L2091,325Z" fill="#898989" stroke="#898989" stroke-width="1.51"/><path d="M-165,1418L-658,1350L212,1532Z" fill="#7e7e7e" stroke="#7e7e7e" stroke-width="1.51"/><path d="M1672,-375L1650,114L2048,-24Z" fill="#727272" stroke="#727272" stroke-width="1.51"/><path d="M1608,1129L1626,1341L2014,1160Z" fill="#bebebe" stroke="#bebebe" stroke-width="1.51"/><path d="M1675,430L1587,674L2022,675Z" fill="#999999" stroke="#999999" stroke-width="1.51"/><path d="M601,1370L212,1532L961,1355Z" fill="#9c9c9c" stroke="#9c9c9c" stroke-width="1.51"/><path d="M1308,624L1463,1144L1587,674Z" fill="#9a9a9a" stroke="#9a9a9a" stroke-width="1.51"/><path d="M1587,674L1463,1144L1608,1129Z" fill="#a8a8a8" stroke="#a8a8a8" stroke-width="1.51"/><path d="M1353,-294L1465,117L1650,114Z" fill="#6b6b6b" stroke="#6b6b6b" stroke-width="1.51"/><path d="M953,-484L1353,-294L1672,-375Z" fill="#515151" stroke="#515151" stroke-width="1.51"/><path d="M1353,-294L1650,114L1672,-375Z" fill="#656565" stroke="#656565" stroke-width="1.51"/><path d="M1308,624L1587,674L1675,430Z" fill="#8f8f8f" stroke="#8f8f8f" stroke-width="1.51"/><path d="M1327,241L1308,624L1675,430Z" fill="#838383" stroke="#838383" stroke-width="1.51"/><path d="M1650,114L1465,117L1675,430Z" fill="#7d7d7d" stroke="#7d7d7d" stroke-width="1.51"/><path d="M1465,117L1327,241L1675,430Z" fill="#7b7b7b" stroke="#7b7b7b" stroke-width="1.51"/><path d="M1608,1129L1463,1144L1626,1341Z" fill="#b6b6b6" stroke="#b6b6b6" stroke-width="1.51"/><path d="M1463,1144L1457,1451L1626,1341Z" fill="#bbbbbb" stroke="#bbbbbb" stroke-width="1.51"/><path d="M1049,647L1000,1112L1308,624Z" fill="#8b8b8b" stroke="#8b8b8b" stroke-width="1.51"/><path d="M1308,624L1000,1112L1463,1144Z" fill="#9b9b9b" stroke="#9b9b9b" stroke-width="1.51"/><path d="M961,1355L1457,1451L1463,1144Z" fill="#b2b2b2" stroke="#b2b2b2" stroke-width="1.51"/><path d="M1000,1112L961,1355L1463,1144Z" fill="#a5a5a5" stroke="#a5a5a5" stroke-width="1.51"/><path d="M1353,-294L920,-37L1465,117Z" fill="#606060" stroke="#606060" stroke-width="1.51"/><path d="M920,-37L1327,241L1465,117Z" fill="#696969" stroke="#696969" stroke-width="1.51"/><path d="M1073,285L1049,647L1308,624Z" fill="#7c7c7c" stroke="#7c7c7c" stroke-width="1.51"/><path d="M920,-37L1073,285L1327,241Z" fill="#676767" stroke="#676767" stroke-width="1.51"/><path d="M1073,285L1308,624L1327,241Z" fill="#787878" stroke="#787878" stroke-width="1.51"/><path d="M953,-484L920,-37L1353,-294Z" fill="#4f4f4f" stroke="#4f4f4f" stroke-width="1.51"/><path d="M692,-265L920,-37L953,-484Z" fill="#474747" stroke="#474747" stroke-width="1.51"/><path d="M682,1098L1000,1112L1049,647Z" fill="#8d8d8d" stroke="#8d8d8d" stroke-width="1.51"/><path d="M623,629L682,1098L1049,647Z" fill="#7f7f7f" stroke="#7f7f7f" stroke-width="1.51"/><path d="M920,-37L646,57L1073,285Z" fill="#5c5c5c" stroke="#5c5c5c" stroke-width="1.51"/><path d="M646,57L691,474L1073,285Z" fill="#626262" stroke="#626262" stroke-width="1.51"/><path d="M691,474L1049,647L1073,285Z" fill="#727272" stroke="#727272" stroke-width="1.51"/><path d="M691,474L623,629L1049,647Z" fill="#737373" stroke="#737373" stroke-width="1.51"/><path d="M165,-474L692,-265L953,-484Z" fill="#383838" stroke="#383838" stroke-width="1.51"/><path d="M682,1098L961,1355L1000,1112Z" fill="#999999" stroke="#999999" stroke-width="1.51"/><path d="M682,1098L601,1370L961,1355Z" fill="#999999" stroke="#999999" stroke-width="1.51"/><path d="M692,-265L646,57L920,-37Z" fill="#4d4d4d" stroke="#4d4d4d" stroke-width="1.51"/><path d="M245,594L101,1007L623,629Z" fill="#6b6b6b" stroke="#6b6b6b" stroke-width="1.51"/><path d="M623,629L101,1007L682,1098Z" fill="#797979" stroke="#797979" stroke-width="1.51"/><path d="M216,240L245,594L691,474Z" fill="#5c5c5c" stroke="#5c5c5c" stroke-width="1.51"/><path d="M646,57L216,240L691,474Z" fill="#575757" stroke="#575757" stroke-width="1.51"/><path d="M102,-81L646,57L692,-265Z" fill="#434343" stroke="#434343" stroke-width="1.51"/><path d="M165,-474L102,-81L692,-265Z" fill="#343434" stroke="#343434" stroke-width="1.51"/><path d="M245,594L623,629L691,474Z" fill="#686868" stroke="#686868" stroke-width="1.51"/><path d="M101,1007L601,1370L682,1098Z" fill="#878787" stroke="#878787" stroke-width="1.51"/><path d="M102,-81L216,240L646,57Z" fill="#464646" stroke="#464646" stroke-width="1.51"/><path d="M101,1007L212,1532L601,1370Z" fill="#898989" stroke="#898989" stroke-width="1.51"/><path d="M-67,477L-266,613L101,1007Z" fill="#595959" stroke="#595959" stroke-width="1.51"/><path d="M-77,-464L102,-81L165,-474Z" fill="#292929" stroke="#292929" stroke-width="1.51"/><path d="M101,1007L-165,1418L212,1532Z" fill="#808080" stroke="#808080" stroke-width="1.51"/><path d="M102,-81L-23,33L216,240Z" fill="#3e3e3e" stroke="#3e3e3e" stroke-width="1.51"/><path d="M216,240L-67,477L245,594Z" fill="#535353" stroke="#535353" stroke-width="1.51"/><path d="M-67,477L101,1007L245,594Z" fill="#5f5f5f" stroke="#5f5f5f" stroke-width="1.51"/><path d="M-23,33L-67,477L216,240Z" fill="#464646" stroke="#464646" stroke-width="1.51"/><path d="M-272,1074L-165,1418L101,1007Z" fill="#727272" stroke="#727272" stroke-width="1.51"/><path d="M-266,613L-272,1074L101,1007Z" fill="#626262" stroke="#626262" stroke-width="1.51"/><path d="M-77,-464L-23,33L102,-81Z" fill="#2f2f2f" stroke="#2f2f2f" stroke-width="1.51"/><path d="M-436,730L-272,1074L-266,613Z" fill="#565656" stroke="#565656" stroke-width="1.51"/><path d="M-644,91L-511,276L-23,33Z" fill="#323232" stroke="#323232" stroke-width="1.51"/><path d="M-77,-464L-642,-249L-23,33Z" fill="#252525" stroke="#252525" stroke-width="1.51"/><path d="M-642,-249L-644,91L-23,33Z" fill="#282828" stroke="#282828" stroke-width="1.51"/><path d="M-511,276L-67,477L-23,33Z" fill="#3e3e3e" stroke="#3e3e3e" stroke-width="1.51"/><path d="M-511,276L-266,613L-67,477Z" fill="#454545" stroke="#454545" stroke-width="1.51"/><path d="M-272,1074L-658,1350L-165,1418Z" fill="#6f6f6f" stroke="#6f6f6f" stroke-width="1.51"/><path d="M-436,730L-635,976L-272,1074Z" fill="#585858" stroke="#585858" stroke-width="1.51"/><path d="M-635,976L-658,1350L-272,1074Z" fill="#616161" stroke="#616161" stroke-width="1.51"/><path d="M-511,276L-436,730L-266,613Z" fill="#464646" stroke="#464646" stroke-width="1.51"/><path d="M-511,276L-635,976L-436,730Z" fill="#484848" stroke="#484848" stroke-width="1.51"/><path d="M-644,91L-635,976L-511,276Z" fill="#3b3b3b" stroke="#3b3b3b" stroke-width="1.51"/><path d="M-644,91L-658,1350L-635,976Z" fill="#4b4b4b" stroke="#4b4b4b" stroke-width="1.51"/></svg>