<svg xmlns="http://www.w3.org/2000/svg" width="1920" height="1080"><path d="M555,-344L838,-293L1157,-307Z" fill="#e7b1d5" stroke="#e7b1d5" stroke-width="1.51"/><path d="M555,-344L1157,-307L1628,-315Z" fill="#eea2c9" stroke="#eea2c9" stroke-width="1.51"/><path d="M1157,-307L1351,-291L1628,-315Z" fill="#f095b8" stroke="#f095b8" stroke-width="1.51"/><path d="M880,1402L306,1434L1926,1432Z" fill="#ad3267" stroke="#ad3267" stroke-width="1.51"/><path d="M1663,1393L1329,1384L1926,1432Z" fill="#a60844" stroke="#a60844" stroke-width="1.51"/><path d="M1329,1384L880,1402L1926,1432Z" fill="#ae1256" stroke="#ae1256" stroke-width="1.51"/><path d="M1967,1052L2170,1159L2212,840Z" fill="#ab0848" stroke="#ab0848" stroke-width="1.51"/><path d="M258,-352L555,-344L2235,-355Z" fill="#eda9cf" stroke="#eda9cf" stroke-width="1.51"/><path d="M555,-344L1628,-315L2235,-355Z" fill="#ef94b0" stroke="#ef94b0" stroke-width="1.51"/><path d="M1628,-315L1968,-288L2235,-355Z" fill="#d18699" stroke="#d18699" stroke-width="1.51"/><path d="M1968,-288L2217,7L2235,-355Z" fill="#bd7c8c" stroke="#bd7c8c" stroke-width="1.51"/><path d="M2217,7L2231,201L2235,-355Z" fill="#b06d81" stroke="#b06d81" stroke-width="1.51"/><path d="M1970,548L2212,840L2275,494Z" fill="#b32f68" stroke="#b32f68" stroke-width="1.51"/><path d="M2231,201L1912,268L2275,494Z" fill="#ad5279" stroke="#ad5279" stroke-width="1.51"/><path d="M1912,268L1970,548L2275,494Z" fill="#b74779" stroke="#b74779" stroke-width="1.51"/><path d="M2235,-355L2231,201L2275,494Z" fill="#a9607a" stroke="#a9607a" stroke-width="1.51"/><path d="M2170,1159L1926,1432L2279,1333Z" fill="#8c003a" stroke="#8c003a" stroke-width="1.51"/><path d="M2275,494L2212,840L2279,1333Z" fill="#a80f4d" stroke="#a80f4d" stroke-width="1.51"/><path d="M2212,840L2170,1159L2279,1333Z" fill="#9a043e" stroke="#9a043e" stroke-width="1.51"/><path d="M1970,548L1891,761L2212,840Z" fill="#bd2469" stroke="#bd2469" stroke-width="1.51"/><path d="M1968,-288L1880,-52L2217,7Z" fill="#c27890" stroke="#c27890" stroke-width="1.51"/><path d="M1880,-52L1912,268L2217,7Z" fill="#bc698a" stroke="#bc698a" stroke-width="1.51"/><path d="M2217,7L1912,268L2231,201Z" fill="#b16080" stroke="#b16080" stroke-width="1.51"/><path d="M1891,761L1967,1052L2212,840Z" fill="#b9115b" stroke="#b9115b" stroke-width="1.51"/><path d="M1967,1052L1926,1432L2170,1159Z" fill="#9d0245" stroke="#9d0245" stroke-width="1.51"/><path d="M1880,-52L1655,-4L1912,268Z" fill="#cc6f8f" stroke="#cc6f8f" stroke-width="1.51"/><path d="M1891,761L1684,840L1967,1052Z" fill="#c71560" stroke="#c71560" stroke-width="1.51"/><path d="M1684,840L1669,1037L1967,1052Z" fill="#c81258" stroke="#c81258" stroke-width="1.51"/><path d="M1663,1393L1926,1432L1967,1052Z" fill="#a20345" stroke="#a20345" stroke-width="1.51"/><path d="M1669,1037L1663,1393L1967,1052Z" fill="#b7094e" stroke="#b7094e" stroke-width="1.51"/><path d="M1628,-315L1880,-52L1968,-288Z" fill="#d7869a" stroke="#d7869a" stroke-width="1.51"/><path d="M1912,268L1668,560L1970,548Z" fill="#c74a80" stroke="#c74a80" stroke-width="1.51"/><path d="M1668,560L1891,761L1970,548Z" fill="#ca3676" stroke="#ca3676" stroke-width="1.51"/><path d="M1622,268L1668,560L1912,268Z" fill="#cd5887" stroke="#cd5887" stroke-width="1.51"/><path d="M1655,-4L1622,268L1912,268Z" fill="#cf698e" stroke="#cf698e" stroke-width="1.51"/><path d="M1628,-315L1655,-4L1880,-52Z" fill="#dc829a" stroke="#dc829a" stroke-width="1.51"/><path d="M1668,560L1684,840L1891,761Z" fill="#d32972" stroke="#d32972" stroke-width="1.51"/><path d="M1351,-291L1370,-24L1628,-315Z" fill="#eb90b0" stroke="#eb90b0" stroke-width="1.51"/><path d="M1389,246L1622,268L1655,-4Z" fill="#d96e99" stroke="#d96e99" stroke-width="1.51"/><path d="M1370,-24L1389,246L1655,-4Z" fill="#de78a3" stroke="#de78a3" stroke-width="1.51"/><path d="M1628,-315L1370,-24L1655,-4Z" fill="#e486a4" stroke="#e486a4" stroke-width="1.51"/><path d="M1406,1132L1329,1384L1663,1393Z" fill="#b61058" stroke="#b61058" stroke-width="1.51"/><path d="M1622,268L1358,517L1668,560Z" fill="#da528e" stroke="#da528e" stroke-width="1.51"/><path d="M1358,517L1354,849L1668,560Z" fill="#e13c89" stroke="#e13c89" stroke-width="1.51"/><path d="M1406,1132L1663,1393L1669,1037Z" fill="#bf0f56" stroke="#bf0f56" stroke-width="1.51"/><path d="M1354,849L1669,1037L1684,840Z" fill="#d81c69" stroke="#d81c69" stroke-width="1.51"/><path d="M1668,560L1354,849L1684,840Z" fill="#de2879" stroke="#de2879" stroke-width="1.51"/><path d="M1389,246L1358,517L1622,268Z" fill="#d9619a" stroke="#d9619a" stroke-width="1.51"/><path d="M1354,849L1406,1132L1669,1037Z" fill="#d61a66" stroke="#d61a66" stroke-width="1.51"/><path d="M1066,1323L880,1402L1329,1384Z" fill="#b42e69" stroke="#b42e69" stroke-width="1.51"/><path d="M1088,574L1049,797L1354,849Z" fill="#e54095" stroke="#e54095" stroke-width="1.51"/><path d="M1088,574L1354,849L1358,517Z" fill="#e54397" stroke="#e54397" stroke-width="1.51"/><path d="M1351,-291L1157,-307L1370,-24Z" fill="#ef94bd" stroke="#ef94bd" stroke-width="1.51"/><path d="M1157,-307L1087,-16L1370,-24Z" fill="#e992be" stroke="#e992be" stroke-width="1.51"/><path d="M1077,318L1358,517L1389,246Z" fill="#dd65a7" stroke="#dd65a7" stroke-width="1.51"/><path d="M1370,-24L1087,-16L1389,246Z" fill="#e27eb2" stroke="#e27eb2" stroke-width="1.51"/><path d="M1087,-16L1077,318L1389,246Z" fill="#dd7ab3" stroke="#dd7ab3" stroke-width="1.51"/><path d="M1066,1323L1329,1384L1406,1132Z" fill="#be1d67" stroke="#be1d67" stroke-width="1.51"/><path d="M1058,1115L1066,1323L1406,1132Z" fill="#c82a70" stroke="#c82a70" stroke-width="1.51"/><path d="M1354,849L1058,1115L1406,1132Z" fill="#da2472" stroke="#da2472" stroke-width="1.51"/><path d="M1049,797L1058,1115L1354,849Z" fill="#df3684" stroke="#df3684" stroke-width="1.51"/><path d="M1077,318L1088,574L1358,517Z" fill="#e05fa7" stroke="#e05fa7" stroke-width="1.51"/><path d="M-74,1350L-267,1344L306,1434Z" fill="#ba7689" stroke="#ba7689" stroke-width="1.51"/><path d="M580,1344L306,1434L880,1402Z" fill="#a95578" stroke="#a95578" stroke-width="1.51"/><path d="M838,-293L820,-70L1087,-16Z" fill="#e2a3ce" stroke="#e2a3ce" stroke-width="1.51"/><path d="M830,301L1077,318L1087,-16Z" fill="#d883bd" stroke="#d883bd" stroke-width="1.51"/><path d="M838,-293L1087,-16L1157,-307Z" fill="#e9a3cc" stroke="#e9a3cc" stroke-width="1.51"/><path d="M-356,-239L38,-278L258,-352Z" fill="#e8e0ef" stroke="#e8e0ef" stroke-width="1.51"/><path d="M818,768L810,1054L1049,797Z" fill="#de4f95" stroke="#de4f95" stroke-width="1.51"/><path d="M1049,797L810,1054L1058,1115Z" fill="#da4486" stroke="#da4486" stroke-width="1.51"/><path d="M810,1054L880,1402L1058,1115Z" fill="#c5437c" stroke="#c5437c" stroke-width="1.51"/><path d="M1058,1115L880,1402L1066,1323Z" fill="#bc3874" stroke="#bc3874" stroke-width="1.51"/><path d="M830,301L881,600L1077,318Z" fill="#d975b7" stroke="#d975b7" stroke-width="1.51"/><path d="M820,-70L830,301L1087,-16Z" fill="#d993c5" stroke="#d993c5" stroke-width="1.51"/><path d="M1077,318L881,600L1088,574Z" fill="#df66af" stroke="#df66af" stroke-width="1.51"/><path d="M881,600L1049,797L1088,574Z" fill="#e256a4" stroke="#e256a4" stroke-width="1.51"/><path d="M881,600L818,768L1049,797Z" fill="#e257a3" stroke="#e257a3" stroke-width="1.51"/><path d="M591,1068L580,1344L810,1054Z" fill="#c45985" stroke="#c45985" stroke-width="1.51"/><path d="M820,-70L582,-19L830,301Z" fill="#d39dcb" stroke="#d39dcb" stroke-width="1.51"/><path d="M582,-19L545,217L830,301Z" fill="#ce9bca" stroke="#ce9bca" stroke-width="1.51"/><path d="M810,1054L580,1344L880,1402Z" fill="#b94d7e" stroke="#b94d7e" stroke-width="1.51"/><path d="M830,301L537,495L881,600Z" fill="#d67cba" stroke="#d67cba" stroke-width="1.51"/><path d="M537,495L818,768L881,600Z" fill="#db6eb0" stroke="#db6eb0" stroke-width="1.51"/><path d="M591,1068L810,1054L818,768Z" fill="#d75a90" stroke="#d75a90" stroke-width="1.51"/><path d="M521,810L591,1068L818,768Z" fill="#d8649c" stroke="#d8649c" stroke-width="1.51"/><path d="M537,495L521,810L818,768Z" fill="#da70af" stroke="#da70af" stroke-width="1.51"/><path d="M555,-344L582,-19L820,-70Z" fill="#d8b4d7" stroke="#d8b4d7" stroke-width="1.51"/><path d="M545,217L537,495L830,301Z" fill="#cc8fc4" stroke="#cc8fc4" stroke-width="1.51"/><path d="M555,-344L820,-70L838,-293Z" fill="#e0b4d8" stroke="#e0b4d8" stroke-width="1.51"/><path d="M256,570L521,810L537,495Z" fill="#dc81b9" stroke="#dc81b9" stroke-width="1.51"/><path d="M206,220L537,495L545,217Z" fill="#cd9ccb" stroke="#cd9ccb" stroke-width="1.51"/><path d="M258,-352L271,-80L555,-344Z" fill="#decae3" stroke="#decae3" stroke-width="1.51"/><path d="M285,1132L306,1434L580,1344Z" fill="#b66385" stroke="#b66385" stroke-width="1.51"/><path d="M555,-344L271,-80L582,-19Z" fill="#d9bedd" stroke="#d9bedd" stroke-width="1.51"/><path d="M271,-80L545,217L582,-19Z" fill="#d2afd5" stroke="#d2afd5" stroke-width="1.51"/><path d="M521,810L306,874L591,1068Z" fill="#d96d9c" stroke="#d96d9c" stroke-width="1.51"/><path d="M306,874L285,1132L591,1068Z" fill="#d76e92" stroke="#d76e92" stroke-width="1.51"/><path d="M285,1132L580,1344L591,1068Z" fill="#c26289" stroke="#c26289" stroke-width="1.51"/><path d="M271,-80L206,220L545,217Z" fill="#d1afd5" stroke="#d1afd5" stroke-width="1.51"/><path d="M206,220L256,570L537,495Z" fill="#d597c8" stroke="#d597c8" stroke-width="1.51"/><path d="M256,570L306,874L521,810Z" fill="#e07bb1" stroke="#e07bb1" stroke-width="1.51"/><path d="M206,220L-76,530L256,570Z" fill="#dba2cd" stroke="#dba2cd" stroke-width="1.51"/><path d="M17,35L206,220L271,-80Z" fill="#d7bedc" stroke="#d7bedc" stroke-width="1.51"/><path d="M258,-352L38,-278L271,-80Z" fill="#e1d2e7" stroke="#e1d2e7" stroke-width="1.51"/><path d="M256,570L-27,798L306,874Z" fill="#e586b7" stroke="#e586b7" stroke-width="1.51"/><path d="M-45,1059L285,1132L306,874Z" fill="#dc7b98" stroke="#dc7b98" stroke-width="1.51"/><path d="M-27,798L-45,1059L306,874Z" fill="#e485a8" stroke="#e485a8" stroke-width="1.51"/><path d="M285,1132L-74,1350L306,1434Z" fill="#bc6f8a" stroke="#bc6f8a" stroke-width="1.51"/><path d="M-45,1059L-74,1350L285,1132Z" fill="#ce7b94" stroke="#ce7b94" stroke-width="1.51"/><path d="M38,-278L17,35L271,-80Z" fill="#decee5" stroke="#decee5" stroke-width="1.51"/><path d="M-73,209L-76,530L206,220Z" fill="#d7b2d6" stroke="#d7b2d6" stroke-width="1.51"/><path d="M-76,530L-27,798L256,570Z" fill="#e597c3" stroke="#e597c3" stroke-width="1.51"/><path d="M17,35L-73,209L206,220Z" fill="#d8bddc" stroke="#d8bddc" stroke-width="1.51"/><path d="M-356,-239L-357,28L17,35Z" fill="#e5daeb" stroke="#e5daeb" stroke-width="1.51"/><path d="M-356,-239L17,35L38,-278Z" fill="#e6deee" stroke="#e6deee" stroke-width="1.51"/><path d="M-357,28L-73,209L17,35Z" fill="#decbe3" stroke="#decbe3" stroke-width="1.51"/><path d="M-296,224L-262,542L-76,530Z" fill="#e4b2d6" stroke="#e4b2d6" stroke-width="1.51"/><path d="M-357,28L-296,224L-73,209Z" fill="#dfc9e2" stroke="#dfc9e2" stroke-width="1.51"/><path d="M-296,224L-76,530L-73,209Z" fill="#dcbadb" stroke="#dcbadb" stroke-width="1.51"/><path d="M-267,1344L-74,1350L-45,1059Z" fill="#cb8196" stroke="#cb8196" stroke-width="1.51"/><path d="M-363,1047L-267,1344L-45,1059Z" fill="#d9889b" stroke="#d9889b" stroke-width="1.51"/><path d="M-76,530L-262,542L-27,798Z" fill="#eaa0c9" stroke="#eaa0c9" stroke-width="1.51"/><path d="M-262,542L-353,766L-27,798Z" fill="#ef9dc4" stroke="#ef9dc4" stroke-width="1.51"/><path d="M-363,1047L-45,1059L-27,798Z" fill="#e98ea7" stroke="#e98ea7" stroke-width="1.51"/><path d="M-353,766L-363,1047L-27,798Z" fill="#ef94b4" stroke="#ef94b4" stroke-width="1.51"/><path d="M-296,224L-353,766L-262,542Z" fill="#eaaed4" stroke="#eaaed4" stroke-width="1.51"/><path d="M-357,28L-353,766L-296,224Z" fill="#e1bddc" stroke="#e1bddc" stroke-width="1.51"/><path d="M-357,28L-363,1047L-353,766Z" fill="#efa8cd" stroke="#efa8cd" stroke-width="1.51"/></svg>